<svg width="30" height="20" viewBox="0 0 30 20" fill="none" xmlns="http://www.w3.org/2000/svg">
<g id="Group">
<g id="Group_2">
<g id="Group_3">
<path id="Vector" d="M26.6084 0H6.74505C4.87475 0 3.35351 1.39144 3.35351 3.10193V3.37381C1.50093 3.39311 0 4.7754 0 6.47388V16.1243C0 17.8348 1.52152 19.2262 3.39154 19.2262H23.2549C25.1249 19.2262 26.6464 17.8348 26.6464 16.1243V15.8524C28.4986 15.8336 29.9999 14.4513 29.9999 12.7524V3.10207C30.0004 1.39158 28.4784 0 26.6084 0ZM24.4716 16.1243C24.4716 16.6268 23.9147 17.0509 23.2553 17.0509H3.39197C2.73256 17.0509 2.17564 16.6268 2.17564 16.1243V6.47403C2.17564 5.97186 2.73284 5.54745 3.39197 5.54745H23.2553C23.9147 5.54745 24.4716 5.972 24.4716 6.47403V16.1243ZM26.6469 13.6759V6.47388C26.6469 4.76339 25.1253 3.37195 23.2553 3.37195H5.52872V3.10193C5.52872 2.59976 6.08593 2.17535 6.74505 2.17535H26.6084C27.2678 2.17535 27.8247 2.5999 27.8247 3.10193V12.7524H27.8252C27.825 13.2447 27.289 13.6596 26.6469 13.6759Z" fill="white"/>
<path id="Vector_2" d="M13.3627 10.4843C12.4472 10.3752 11.9825 10.2447 11.9825 9.83273C11.9825 9.19462 12.9062 9.12572 13.3036 9.12572C13.8884 9.12572 14.5351 9.40847 14.7458 9.75611L14.8296 9.89491L16.1656 9.27682L16.0839 9.11043C15.6138 8.15012 14.7803 7.86008 14.1367 7.74215V6.89233H12.574V7.73772C11.1979 7.95199 10.3818 8.72705 10.3818 9.83245C10.3818 11.6513 12.0879 11.842 13.2157 11.9685C14.2409 12.0896 14.7188 12.3357 14.7188 12.7428C14.7188 13.5303 13.6065 13.5915 13.2653 13.5915C12.5004 13.5915 11.7637 13.2127 11.552 12.7098L11.4812 12.5427L10.0317 13.1568L10.1032 13.3239C10.511 14.2788 11.3852 14.881 12.5736 15.0311V15.9472H14.1361V14.9854C15.2767 14.8447 16.3755 14.1153 16.3755 12.7424C16.376 10.8559 14.563 10.6325 13.3627 10.4843Z" fill="white"/>
</g>
</g>
</g>
</svg>
