<svg width="25" height="25" viewBox="0 0 25 25" fill="none" xmlns="http://www.w3.org/2000/svg">
<path id="Vector" d="M12.5329 6.27224C12.256 6.27224 11.9904 6.38237 11.7946 6.57842C11.5988 6.77446 11.4888 7.04036 11.4888 7.31761V12.5445C11.4889 12.8217 11.5989 13.0876 11.7947 13.2836L14.9268 16.4197C15.1237 16.6101 15.3875 16.7155 15.6612 16.7131C15.9349 16.7107 16.1968 16.6008 16.3904 16.4069C16.5839 16.2131 16.6937 15.9509 16.6961 15.6768C16.6985 15.4027 16.5933 15.1387 16.4031 14.9415L13.5769 12.1117V7.31761C13.5769 7.04036 13.4669 6.77446 13.2711 6.57842C13.0753 6.38237 12.8098 6.27224 12.5329 6.27224ZM24.865 10.5917C24.5066 8.31891 23.5308 6.18858 22.0443 4.43381C20.5579 2.67903 18.618 1.36743 16.4371 0.642485C14.2561 -0.0824554 11.918 -0.1928 9.67859 0.323524C7.43918 0.839848 5.38474 1.96295 3.74004 3.56995V1.04537C3.74004 0.768123 3.63004 0.502228 3.43425 0.306183C3.23845 0.110137 2.9729 0 2.69601 0C2.41911 0 2.15356 0.110137 1.95776 0.306183C1.76197 0.502228 1.65197 0.768123 1.65197 1.04537V5.22686C1.65197 5.78136 1.87197 6.31315 2.26355 6.70524C2.65514 7.09733 3.18625 7.31761 3.74004 7.31761H7.91616C8.19306 7.31761 8.45861 7.20747 8.6544 7.01143C8.8502 6.81538 8.96019 6.54949 8.96019 6.27224C8.96019 5.99499 8.8502 5.72909 8.6544 5.53305C8.45861 5.337 8.19306 5.22686 7.91616 5.22686H5.04403C6.71239 3.53088 8.90937 2.45652 11.271 2.18179C13.6326 1.90705 16.017 2.44844 18.0293 3.71623C20.0416 4.98403 21.5608 6.90215 22.3354 9.15279C23.11 11.4034 23.0935 13.8515 22.2884 16.0914C21.4834 18.3313 19.9383 20.2286 17.909 21.469C15.8797 22.7093 13.4882 23.2183 11.1305 22.9115C8.77285 22.6047 6.59063 21.5006 4.94541 19.7821C3.30018 18.0636 2.29069 15.8338 2.0842 13.4623C2.05713 13.2075 1.93586 12.972 1.74421 12.8022C1.55257 12.6324 1.30442 12.5404 1.04852 12.5445C0.902512 12.5449 0.758182 12.5757 0.62473 12.635C0.491278 12.6944 0.37163 12.7809 0.273411 12.889C0.175192 12.9972 0.100555 13.1247 0.0542552 13.2634C0.00795535 13.402 -0.00899178 13.5488 0.00449358 13.6944C0.169592 15.3601 0.665968 16.9759 1.46438 18.4466C2.26279 19.9173 3.34708 21.2131 4.65338 22.2577C5.95968 23.3022 7.46156 24.0745 9.07054 24.5289C10.6795 24.9833 12.3631 25.1107 14.022 24.9036C15.6809 24.6964 17.2816 24.159 18.7299 23.3228C20.1781 22.4866 21.4446 21.3687 22.4547 20.0349C23.4647 18.701 24.198 17.1783 24.6112 15.5563C25.0245 13.9344 25.1093 12.246 24.8608 10.5907L24.865 10.5917Z" fill="white"/>
</svg>
