<svg width="34" height="28" viewBox="0 0 34 28" fill="none" xmlns="http://www.w3.org/2000/svg">
<path id="Vector" d="M33 27V24.1111C33 20.9202 30.3951 18.3333 27.1818 18.3333H26.4545M21.3636 12.5556C24.5769 12.5556 27.1818 9.96876 27.1818 6.77778C27.1818 3.5868 24.5769 1 21.3636 1M24.2727 27V24.1111C24.2727 20.9202 21.6678 18.3333 18.4545 18.3333H6.81818C3.60489 18.3333 1 20.9202 1 24.1111V27M18.4545 6.77778C18.4545 9.96876 15.8496 12.5556 12.6364 12.5556C9.42307 12.5556 6.81818 9.96876 6.81818 6.77778C6.81818 3.5868 9.42307 1 12.6364 1C15.8496 1 18.4545 3.5868 18.4545 6.77778Z" stroke="white" stroke-width="2" stroke-linecap="round" stroke-linejoin="round"/>
</svg>
