<svg width="24" height="25" viewBox="0 0 24 25" fill="none" xmlns="http://www.w3.org/2000/svg">
<g id="Group 32">
<g id="_icons">
<path id="Vector" d="M5.33333 24.3173H18.6667C21.6 24.3173 24 21.9173 24 18.9839V10.3173C24 8.58393 23.2 7.11726 21.8667 6.0506L15.2 0.983929C13.3333 -0.349404 10.6667 -0.349405 8.8 1.11726L2.13333 6.0506C0.8 7.11726 0 8.58393 0 10.3173V18.9839C0 21.9173 2.4 24.3173 5.33333 24.3173ZM2.66667 10.3173C2.66667 9.51726 3.06667 8.71726 3.73333 8.18393L10.4 3.11726C10.9333 2.71726 11.4667 2.58393 12 2.58393C12.5333 2.58393 13.0667 2.71726 13.6 3.11726L20.2667 8.18393C20.9333 8.71726 21.3333 9.51726 21.3333 10.3173V18.9839C21.3333 20.4506 20.1333 21.6506 18.6667 21.6506H5.33333C3.86667 21.6506 2.66667 20.4506 2.66667 18.9839V10.3173Z" fill="white"/>
</g>
<g id="Group 31">
<circle id="Ellipse 2" cx="9.33333" cy="12.0001" r="1.33333" fill="white"/>
<circle id="Ellipse 4" cx="9.33333" cy="16.0001" r="1.33333" fill="white"/>
<circle id="Ellipse 3" cx="14.6667" cy="12.0001" r="1.33333" fill="white"/>
<circle id="Ellipse 5" cx="14.6667" cy="16.0001" r="1.33333" fill="white"/>
</g>
</g>
</svg>
