<svg width="34" height="23" viewBox="0 0 34 23" fill="none" xmlns="http://www.w3.org/2000/svg">
<g id="Group 1045">
<path id="Vector" d="M0.700291 0.296259C0.508161 0.314367 0.329757 0.403704 0.200166 0.546701C0.0705754 0.689698 -0.000824926 0.876007 7.19219e-06 1.06899V18.069C2.76825e-05 18.2739 0.0814463 18.4704 0.226356 18.6154C0.371266 18.7603 0.567801 18.8417 0.772734 18.8417H3.16336C3.52846 20.815 5.26589 22.319 7.34092 22.319C9.41594 22.319 11.1534 20.815 11.5185 18.8417H23.6406C24.0057 20.815 25.7432 22.319 27.8182 22.319C29.8932 22.319 31.6306 20.815 31.9957 18.8417H33.2273C33.4322 18.8417 33.6287 18.7603 33.7737 18.6154C33.9186 18.4704 34 18.2739 34 18.069V9.36373C33.9992 9.20339 33.9486 9.04727 33.8551 8.917L30.3778 4.09953C30.3067 3.99913 30.2126 3.91717 30.1034 3.86047C29.9942 3.80377 29.873 3.77396 29.75 3.77353H23.9545V1.06899C23.9545 0.864053 23.8731 0.667519 23.7282 0.522609C23.5833 0.377699 23.3868 0.29628 23.1818 0.296259H0.772734C0.7486 0.295127 0.724426 0.295127 0.700291 0.296259ZM1.54546 1.84171H22.4091V17.2963H11.5185C11.1534 15.323 9.41594 13.819 7.34092 13.819C5.26589 13.819 3.52846 15.323 3.16336 17.2963H1.54546V1.84171ZM6.10938 3.38717C6.00789 3.3919 5.90833 3.41659 5.81638 3.45981C5.72443 3.50303 5.64189 3.56394 5.57349 3.63906C5.50508 3.71418 5.45214 3.80204 5.41769 3.89762C5.38324 3.9932 5.36796 4.09463 5.37272 4.19612C5.37748 4.29761 5.40218 4.39717 5.44542 4.48911C5.48866 4.58105 5.54958 4.66358 5.62472 4.73197C5.69985 4.80036 5.78772 4.85328 5.88331 4.88771C5.9789 4.92214 6.08034 4.9374 6.18182 4.93262H20.0909C20.1933 4.93407 20.295 4.91515 20.39 4.87697C20.485 4.83879 20.5715 4.7821 20.6444 4.7102C20.7173 4.6383 20.7752 4.55263 20.8148 4.45816C20.8543 4.36369 20.8746 4.2623 20.8746 4.15989C20.8746 4.05749 20.8543 3.9561 20.8148 3.86163C20.7752 3.76716 20.7173 3.68149 20.6444 3.60959C20.5715 3.53769 20.485 3.481 20.39 3.44282C20.295 3.40464 20.1933 3.38572 20.0909 3.38717H6.18182C6.15769 3.38604 6.13352 3.38604 6.10938 3.38717ZM23.9545 5.31899H25.8864V10.3417C25.8864 10.5466 25.9678 10.7432 26.1127 10.8881C26.2576 11.033 26.4542 11.1144 26.6591 11.1144H32.4545V12.2735H30.5227C30.4986 12.2724 30.4744 12.2724 30.4503 12.2735C30.2582 12.2916 30.0798 12.381 29.9502 12.524C29.8206 12.667 29.7492 12.8533 29.75 13.0463V14.3019C29.1678 14.0011 28.5157 13.819 27.8182 13.819C26.1036 13.819 24.6248 14.8478 23.9545 16.3183V5.31899ZM27.4318 5.31899H29.3516L32.4304 9.56898H27.4318V5.31899ZM10.7457 6.47808C10.6443 6.48281 10.5447 6.5075 10.4527 6.55072C10.3608 6.59394 10.2783 6.65484 10.2099 6.72996C10.1414 6.80509 10.0885 6.89295 10.0541 6.98853C10.0196 7.08411 10.0043 7.18554 10.0091 7.28703C10.0138 7.38852 10.0385 7.48808 10.0818 7.58002C10.125 7.67196 10.1859 7.75448 10.2611 7.82288C10.3362 7.89127 10.4241 7.94419 10.5197 7.97862C10.6153 8.01305 10.7167 8.02831 10.8182 8.02353H20.0909C20.1933 8.02498 20.295 8.00606 20.39 7.96788C20.485 7.92969 20.5715 7.87301 20.6444 7.80111C20.7173 7.72921 20.7752 7.64354 20.8148 7.54907C20.8543 7.45459 20.8746 7.35321 20.8746 7.2508C20.8746 7.1484 20.8543 7.04701 20.8148 6.95254C20.7752 6.85807 20.7173 6.7724 20.6444 6.7005C20.5715 6.6286 20.485 6.57191 20.39 6.53373C20.295 6.49555 20.1933 6.47663 20.0909 6.47808H10.8182C10.7941 6.47694 10.7699 6.47694 10.7457 6.47808ZM31.2955 13.819H32.4545V14.5917H31.2955V13.819ZM7.34092 15.3644C8.84375 15.3644 10.0455 16.5662 10.0455 18.069C10.0455 19.5718 8.84375 20.7735 7.34092 20.7735C5.83808 20.7735 4.63637 19.5718 4.63637 18.069C4.63637 16.5662 5.83808 15.3644 7.34092 15.3644ZM27.8182 15.3644C29.321 15.3644 30.5227 16.5662 30.5227 18.069C30.5227 19.5718 29.321 20.7735 27.8182 20.7735C26.3154 20.7735 25.1136 19.5718 25.1136 18.069C25.1136 16.5662 26.3154 15.3644 27.8182 15.3644ZM31.5852 16.1372H32.4545V17.2963H31.9957C31.9193 16.8831 31.7726 16.4998 31.5852 16.1372ZM7.34092 16.9099C6.70077 16.9099 6.18182 17.4288 6.18182 18.069C6.18182 18.7091 6.70077 19.2281 7.34092 19.2281C7.98106 19.2281 8.50001 18.7091 8.50001 18.069C8.50001 17.4288 7.98106 16.9099 7.34092 16.9099ZM27.8182 16.9099C27.178 16.9099 26.6591 17.4288 26.6591 18.069C26.6591 18.7091 27.178 19.2281 27.8182 19.2281C28.4583 19.2281 28.9773 18.7091 28.9773 18.069C28.9773 17.4288 28.4583 16.9099 27.8182 16.9099Z" fill="white"/>
</g>
</svg>
