<svg width="24" height="24" viewBox="0 0 24 24" fill="none" xmlns="http://www.w3.org/2000/svg">
<g id="Group 1043">
<path id="Vector" fill-rule="evenodd" clip-rule="evenodd" d="M12 20C17.8333 20 19 19.3333 19 16C19 12.6667 17.8333 12 12 12C6.16667 12 5 12.6667 5 16C5 19.3333 6.16667 20 12 20ZM16.8554 17.325C16.9275 17.1339 17 16.7558 17 16C17 15.2442 16.9275 14.8661 16.8554 14.675C16.8155 14.5692 16.7928 14.5423 16.6952 14.4865C16.5204 14.3866 16.132 14.2425 15.31 14.1412C14.5049 14.042 13.4366 14 12 14C10.5634 14 9.49513 14.042 8.68996 14.1412C7.86796 14.2425 7.47959 14.3866 7.30478 14.4865C7.20717 14.5423 7.18454 14.5692 7.14458 14.675C7.07245 14.8661 7 15.2442 7 16C7 16.7558 7.07245 17.1339 7.14458 17.325C7.18454 17.4308 7.20717 17.4577 7.30478 17.5135C7.47959 17.6134 7.86796 17.7575 8.68996 17.8588C9.49513 17.958 10.5634 18 12 18C13.4366 18 14.5049 17.958 15.31 17.8588C16.132 17.7575 16.5204 17.6134 16.6952 17.5135C16.7928 17.4577 16.8155 17.4308 16.8554 17.325Z" fill="white"/>
<path id="Vector_2" fill-rule="evenodd" clip-rule="evenodd" d="M15 7C15 8.65685 13.6569 10 12 10C10.3431 10 9 8.65685 9 7C9 5.34315 10.3431 4 12 4C13.6569 4 15 5.34315 15 7ZM13 7C13 7.55228 12.5523 8 12 8C11.4477 8 11 7.55228 11 7C11 6.44772 11.4477 6 12 6C12.5523 6 13 6.44772 13 7Z" fill="white"/>
<path id="Vector_3" fill-rule="evenodd" clip-rule="evenodd" d="M12 24C22 24 24 22 24 12C24 2 22 0 12 0C2 0 0 2 0 12C0 22 2 24 12 24ZM21.5762 17.6721C21.8743 16.29 22 14.4604 22 12C22 9.53962 21.8743 7.71002 21.5762 6.32793C21.283 4.96833 20.8518 4.1802 20.3358 3.66421C19.8198 3.14823 19.0317 2.71704 17.6721 2.42379C16.29 2.12569 14.4604 2 12 2C9.53962 2 7.71002 2.12569 6.32793 2.42379C4.96833 2.71704 4.1802 3.14823 3.66421 3.66421C3.14823 4.1802 2.71704 4.96833 2.42379 6.32793C2.12569 7.71002 2 9.53962 2 12C2 14.4604 2.12569 16.29 2.42379 17.6721C2.71704 19.0317 3.14823 19.8198 3.66421 20.3358C4.1802 20.8518 4.96833 21.283 6.32793 21.5762C7.71002 21.8743 9.53962 22 12 22C14.4604 22 16.29 21.8743 17.6721 21.5762C19.0317 21.283 19.8198 20.8518 20.3358 20.3358C20.8518 19.8198 21.283 19.0317 21.5762 17.6721Z" fill="white"/>
</g>
</svg>
