<svg width="25" height="27" viewBox="0 0 25 27" fill="none" xmlns="http://www.w3.org/2000/svg">
<g id="Bag">
<path id="Path_33955" fill-rule="evenodd" clip-rule="evenodd" d="M17.802 25.4439H7.18636C3.28697 25.4439 0.295503 24.0355 1.14522 18.3668L2.13462 10.6845C2.65841 7.85595 4.46261 6.77344 6.04564 6.77344H18.9893C20.5956 6.77344 22.295 7.93743 22.9003 10.6845L23.8897 18.3668C24.6114 23.3953 21.7014 25.4439 17.802 25.4439Z" stroke="white" stroke-width="1.5" stroke-linecap="round" stroke-linejoin="round"/>
<path id="Path_33956" d="M17.9766 6.49411C17.9766 3.45982 15.5168 1.00005 12.4826 1.00005V1.00005C11.0214 0.993858 9.61798 1.56996 8.5826 2.60097C7.54723 3.63198 6.9652 5.03295 6.96521 6.49411H6.96521" stroke="white" stroke-width="1.5" stroke-linecap="round" stroke-linejoin="round"/>
<path id="Line_192" d="M16.2535 12.2206H16.1953" stroke="white" stroke-width="1.5" stroke-linecap="round" stroke-linejoin="round"/>
<path id="Line_193" d="M8.83879 12.2206H8.78063" stroke="white" stroke-width="1.5" stroke-linecap="round" stroke-linejoin="round"/>
</g>
</svg>
