<svg width="22" height="29" viewBox="0 0 22 29" fill="none" xmlns="http://www.w3.org/2000/svg">
<g id="Group 1031">
<g id="Group 1030">
<path id="Vector" d="M22 7.40923C22 7.29046 21.9754 7.17723 21.9348 7.07323C21.9329 7.06831 21.9323 7.06338 21.9305 7.05908C21.8837 6.94523 21.8148 6.84246 21.7292 6.75692L15.2431 0.270769C15.1569 0.184615 15.0542 0.116923 14.9409 0.0695385C14.936 0.0676923 14.9311 0.0670769 14.9268 0.0652308C14.8222 0.024 14.7089 0 14.5902 0H0.923077C0.412923 0 0 0.412923 0 0.923077V27.1286C0 27.6382 0.412923 28.0517 0.923077 28.0517H21.0769C21.5865 28.0517 22 27.6382 22 27.1286V7.40923ZM15.5126 3.15077L18.8486 6.48677H15.5126V3.15077ZM1.84615 26.2049V1.84554H13.6665V7.40985C13.6665 7.92 14.08 8.33292 14.5895 8.33292H20.1538V26.2049H1.84615Z" fill="white"/>
<path id="Vector_2" d="M4.43565 12.1792H14.5895C15.099 12.1792 15.5126 11.7662 15.5126 11.2561C15.5126 10.7459 15.099 10.333 14.5895 10.333H4.43565C3.9255 10.333 3.51257 10.7459 3.51257 11.2561C3.51257 11.7662 3.92611 12.1792 4.43565 12.1792Z" fill="white"/>
<path id="Vector_3" d="M17.8332 13.8215H4.43626C3.92611 13.8215 3.51318 14.2345 3.51318 14.7446C3.51318 15.2541 3.92611 15.6677 4.43626 15.6677H17.8332C18.3427 15.6677 18.7563 15.2541 18.7563 14.7446C18.7563 14.2345 18.3427 13.8215 17.8332 13.8215Z" fill="white"/>
<path id="Vector_4" d="M14.0769 17.3108H4.43565C3.9255 17.3108 3.51257 17.7243 3.51257 18.2339C3.51257 18.7434 3.9255 19.1569 4.43565 19.1569H14.0769C14.5864 19.1569 15 18.7434 15 18.2339C15 17.7243 14.5864 17.3108 14.0769 17.3108Z" fill="white"/>
</g>
</g>
</svg>
