<svg width="28" height="28" viewBox="0 0 28 28" fill="none" xmlns="http://www.w3.org/2000/svg">
<g id="Group 1012">
<g id="Group">
<path id="Vector" d="M26.5565 1.87252C26.5376 1.49222 26.2603 1.16864 25.8838 1.09258C25.8514 1.08628 25.8195 1.08166 25.7875 1.07872L14.9235 0.0042058C14.6709 -0.0210076 14.4247 0.0680797 14.2465 0.246254L1.44063 13.053C-0.48021 14.9738 -0.48021 16.1454 1.44063 18.0658L9.56691 26.1929C10.4279 27.0544 11.1835 27.6267 12.0735 27.6267C12.9636 27.6267 13.7191 27.0527 14.5785 26.1925L27.3865 13.385C27.5647 13.2072 27.6533 12.9589 27.6285 12.708L26.5565 1.87252ZM13.3905 25.0041C12.9867 25.408 12.4106 25.9454 12.0735 25.9454C11.7361 25.9454 11.1596 25.408 10.7553 25.0041L2.62902 16.877C1.37297 15.6214 1.37297 15.4974 2.62902 14.2418L15.155 1.71578L24.9475 2.68481L25.9174 12.4777L13.3905 25.0041Z" fill="white"/>
<path id="Vector_2" d="M8.79178 10.2396L4.97195 14.059C4.00754 15.0234 3.7428 15.6773 4.84714 16.7816C4.92909 16.8635 5.03666 16.9047 5.14424 16.9047C5.25182 16.9047 5.3594 16.8635 5.44134 16.7816C5.60565 16.6173 5.60565 16.3521 5.44134 16.1874C4.78285 15.5289 4.79083 15.4289 5.56615 14.6532L9.38598 10.8338C9.55028 10.6695 9.55028 10.4039 9.38598 10.2396C9.22167 10.0753 8.95609 10.0753 8.79178 10.2396Z" fill="white"/>
<path id="Vector_3" d="M9.98752 9.04321L9.64588 9.38527C9.48199 9.54958 9.48199 9.81558 9.64672 9.97946C9.72867 10.061 9.83582 10.1022 9.9434 10.1022C10.051 10.1022 10.1586 10.0614 10.2409 9.97862L10.5826 9.63656C10.7464 9.47225 10.7464 9.20625 10.5817 9.04237C10.4174 8.8789 10.1518 8.87806 9.98752 9.04321Z" fill="white"/>
<path id="Vector_4" d="M19.9534 4.08997C18.0326 4.08997 16.4685 5.6532 16.4685 7.57446C16.4685 9.49572 18.0326 11.0589 19.9534 11.0589C21.8751 11.0589 23.4375 9.49572 23.4375 7.57446C23.4375 5.6532 21.8747 4.08997 19.9534 4.08997ZM19.9534 9.37806C18.9587 9.37806 18.1494 8.56871 18.1494 7.57446C18.1494 6.58021 18.9587 5.77086 19.9534 5.77086C20.9489 5.77086 21.7566 6.58021 21.7566 7.57446C21.7566 8.56871 20.9481 9.37806 19.9534 9.37806Z" fill="white"/>
</g>
</g>
</svg>
