<svg width="21" height="26" viewBox="0 0 21 26" fill="none" xmlns="http://www.w3.org/2000/svg">
<g id="ic-ecommerce-invoice">
<g id="Vrstva 169">
<path id="Vector" d="M18.9365 24.9807L14.7803 21.7931C14.7301 21.7523 14.6673 21.73 14.6025 21.73C14.5378 21.73 14.475 21.7523 14.4248 21.7931L10.4893 25.1646C10.4381 25.2086 10.3729 25.2328 10.3054 25.2328C10.2379 25.2328 10.1727 25.2086 10.1215 25.1646L5.65883 21.7931C5.61162 21.7509 5.55051 21.7275 5.48718 21.7275C5.42386 21.7275 5.36275 21.7509 5.31554 21.7931L1.46588 24.9562C1.42318 24.987 1.37299 25.0058 1.32054 25.0106C1.2681 25.0154 1.21533 25.006 1.16773 24.9835C1.12014 24.9609 1.07947 24.926 1.04997 24.8824C1.02046 24.8388 1.00321 24.7881 1 24.7355V3.45201C1 2.8017 1.25834 2.17802 1.71818 1.71818C2.17802 1.25834 2.8017 1 3.45201 1H16.9381C17.5884 1 18.2121 1.25834 18.6719 1.71818C19.1318 2.17802 19.3901 2.8017 19.3901 3.45201V24.76C19.3895 24.8124 19.3744 24.8636 19.3464 24.9078C19.3184 24.9521 19.2786 24.9876 19.2315 25.0105C19.1844 25.0335 19.1319 25.0428 19.0797 25.0375C19.0276 25.0323 18.978 25.0126 18.9365 24.9807V24.9807Z" stroke="white" stroke-width="1.5" stroke-linecap="round" stroke-linejoin="round"/>
<path id="Vector_2" d="M4.17529 6.03882H13.9833" stroke="white" stroke-width="1.5" stroke-linecap="round" stroke-linejoin="round"/>
<path id="Vector_3" d="M4.17529 10.9429H10.3053" stroke="white" stroke-width="1.5" stroke-linecap="round" stroke-linejoin="round"/>
<path id="Vector_4" d="M4.17529 15.8469H15.2094" stroke="white" stroke-width="1.5" stroke-linecap="round" stroke-linejoin="round"/>
</g>
</g>
</svg>
