<svg width="26" height="26" viewBox="0 0 26 26" fill="none" xmlns="http://www.w3.org/2000/svg">
<g id="Group 1044">
<path id="Vector" d="M12.9972 6.5C11.7117 6.50056 10.4553 6.88225 9.38675 7.59682C8.3182 8.31138 7.48552 9.32674 6.99398 10.5145C6.50244 11.7023 6.37412 13.0091 6.62524 14.2698C6.87636 15.5305 7.49565 16.6884 8.4048 17.5972C9.31396 18.5059 10.4722 19.1247 11.7329 19.3753C12.9937 19.6259 14.3005 19.497 15.4881 19.0049C16.6756 18.5129 17.6906 17.6798 18.4047 16.6109C19.1189 15.5421 19.5 14.2855 19.5 13C19.4978 11.2763 18.8118 9.62386 17.5927 8.40528C16.3736 7.1867 14.7209 6.50149 12.9972 6.5ZM12.9972 17.8102C12.0459 17.8097 11.1162 17.5271 10.3255 16.9982C9.53487 16.4693 8.91877 15.7178 8.55513 14.8388C8.19148 13.9598 8.09663 12.9928 8.28255 12.0598C8.46847 11.1269 8.92682 10.2701 9.59965 9.59766C10.2725 8.92522 11.1296 8.46737 12.0626 8.282C12.9956 8.09662 13.9627 8.19204 14.8414 8.5562C15.7202 8.92036 16.4713 9.5369 16.9998 10.3279C17.5282 11.1189 17.8102 12.0487 17.8102 13C17.8087 14.2758 17.3011 15.4988 16.3987 16.4007C15.4963 17.3025 14.273 17.8095 12.9972 17.8102Z" fill="white"/>
<path id="Vector_2" d="M25.4378 15.5474L23.1671 13.8243C23.1898 13.5753 23.2068 13.296 23.2068 12.9945C23.2068 12.693 23.1898 12.4192 23.1671 12.1647L25.4378 10.4387C25.7133 10.2233 25.9009 9.91919 25.967 9.58104C26.0331 9.24289 25.9732 8.89286 25.7982 8.59384L23.3147 4.42556C23.1391 4.12322 22.8582 3.89223 22.5228 3.77449C22.1874 3.65676 21.8198 3.66008 21.4867 3.78386L18.8158 4.81833C18.3553 4.50233 17.8682 4.22475 17.3597 3.98854L16.9539 1.22259C16.9038 0.881733 16.7287 0.570087 16.461 0.345327C16.1933 0.120566 15.8511 -0.00209413 15.4978 4.45147e-05H10.5022C10.1487 -0.00268032 9.80621 0.119772 9.53839 0.344639C9.27056 0.569506 9.09564 0.881489 9.04613 1.22259L8.6374 3.98854C8.13063 4.22615 7.6446 4.50367 7.18415 4.81833L4.50188 3.77003C4.17347 3.64348 3.80915 3.63707 3.47626 3.75198C3.14338 3.86689 2.86443 4.09535 2.691 4.39514L0.201739 8.59938C0.022332 8.89846 -0.0402733 9.25059 0.0254305 9.59105C0.0911343 9.93151 0.280732 10.2374 0.559375 10.4526L2.83008 12.1757C2.8017 12.4745 2.7875 12.7428 2.7875 13.0055C2.7875 13.2683 2.7875 13.5283 2.83008 13.8353L0.559375 15.5613C0.283866 15.7767 0.0962201 16.0808 0.0301486 16.419C-0.0359229 16.7571 0.0239111 17.1071 0.198901 17.4062L2.68532 21.5744C2.86132 21.8763 3.14247 22.1067 3.47781 22.2239C3.81315 22.3411 4.18048 22.3374 4.51324 22.2134L7.18415 21.1678C7.64481 21.4837 8.13188 21.7613 8.64024 21.9976L9.04613 24.7636C9.09364 25.1067 9.26754 25.4213 9.53542 25.6488C9.80331 25.8762 10.1469 26.0011 10.5022 26H15.4978C15.8513 26.0027 16.1938 25.8802 16.4616 25.6554C16.7294 25.4305 16.9043 25.1185 16.9539 24.7774L17.3626 22.0115C17.8694 21.774 18.3555 21.4964 18.8158 21.1817L21.4981 22.23C21.8265 22.3565 22.1908 22.3629 22.5237 22.248C22.8566 22.1331 23.1356 21.9046 23.309 21.6049L25.8153 17.3757C25.9849 17.0768 26.0401 16.7289 25.9709 16.3941C25.9018 16.0592 25.7128 15.7591 25.4378 15.5474ZM21.9267 20.6119L19.0117 19.4723C18.8759 19.4189 18.7283 19.4005 18.5831 19.419C18.438 19.4374 18.3001 19.4919 18.1829 19.5774C17.5929 20.0194 16.9471 20.3857 16.2613 20.6672C16.1241 20.7221 16.0041 20.8109 15.913 20.925C15.8219 21.039 15.7629 21.1742 15.7419 21.3172L15.2962 24.3404H10.7037L10.2581 21.3172C10.2371 21.1742 10.1781 21.039 10.087 20.925C9.99593 20.8109 9.87586 20.7221 9.7387 20.6672C9.0545 20.3912 8.41114 20.0275 7.82563 19.5857C7.70827 19.4974 7.56929 19.4405 7.42243 19.4206C7.27557 19.4007 7.12593 19.4185 6.98831 19.4723L4.07329 20.6119L1.77136 16.7396L4.24359 14.856C4.35937 14.7678 4.44976 14.6519 4.50597 14.5195C4.56217 14.3872 4.58228 14.243 4.56433 14.1008C4.51327 13.7359 4.48578 13.3683 4.48202 13C4.48624 12.6354 4.51373 12.2715 4.56433 11.9102C4.58228 11.7681 4.56217 11.6238 4.50597 11.4915C4.44976 11.3592 4.35937 11.2433 4.24359 11.1551L1.77136 9.2715L4.07329 5.39917L6.98831 6.52768C7.12407 6.58107 7.27167 6.59945 7.41685 6.58104C7.56203 6.56263 7.69989 6.50805 7.81711 6.42257C8.40714 5.98067 9.05295 5.61442 9.7387 5.33279C9.87586 5.2779 9.99593 5.18905 10.087 5.07505C10.1781 4.96104 10.2371 4.82583 10.2581 4.68279L10.7037 1.65961H15.2962L15.7419 4.68279C15.7629 4.82583 15.8219 4.96104 15.913 5.07505C16.0041 5.18905 16.1241 5.2779 16.2613 5.33279C16.9471 5.60735 17.5916 5.97115 18.1772 6.41428C18.2946 6.50258 18.4335 6.5595 18.5804 6.57939C18.7273 6.59928 18.8769 6.58145 19.0145 6.52768L21.9295 5.38811L24.2315 9.26044L21.7592 11.144C21.6435 11.2322 21.5531 11.3481 21.4969 11.4805C21.4407 11.6128 21.4205 11.757 21.4385 11.8992C21.546 12.6219 21.546 13.356 21.4385 14.0787C21.4205 14.2209 21.4407 14.3651 21.4969 14.4974C21.5531 14.6297 21.6435 14.7456 21.7592 14.8338L24.2315 16.7174L21.9267 20.6119Z" fill="white"/>
</g>
</svg>
